<svg version="1.1" id="Layer_1" xmlns="http://www.w3.org/2000/svg" xmlns:xlink="http://www.w3.org/1999/xlink" x="0px" y="0px"
	 width="100%" viewBox="0 0 192 192" enable-background="new 0 0 192 192" xml:space="preserve">
<path fill="#000001" opacity="1.000000" stroke="none" 
	d="
M1.000000,81.000000 
	C1.000000,54.000008 1.000000,27.500013 1.000000,1.000014 
	C64.999977,1.000010 128.999954,1.000010 192.999954,1.000005 
	C192.999969,64.999962 192.999969,128.999924 192.999985,192.999908 
	C129.000046,192.999939 65.000107,192.999939 1.000078,192.999969 
	C1.000000,155.833328 1.000000,118.666664 1.000000,81.000000 
M140.508438,121.862450 
	C140.686935,121.583977 140.865433,121.305511 140.994644,121.015053 
	C140.994644,121.015053 141.037369,121.045326 141.725662,120.978844 
	C142.835709,120.333199 143.945770,119.687553 145.008713,118.998878 
	C145.008713,118.998878 145.024963,119.060555 145.516113,118.872719 
	C145.714355,118.590698 145.912613,118.308685 146.843719,117.984818 
	C150.541138,115.966660 154.264313,113.994095 157.930832,111.921272 
	C166.780457,106.918205 175.649094,101.945793 184.415176,96.799408 
	C187.964325,94.715775 187.940033,91.840981 184.314728,89.727318 
	C174.258041,83.863976 164.073730,78.220062 153.968674,72.439079 
	C131.182281,59.403282 108.392220,46.373623 85.644836,33.269981 
	C71.385658,25.055979 57.242012,16.640381 42.931801,8.517346 
	C41.140858,7.500737 38.489491,7.126218 36.550610,7.639523 
	C35.677193,7.870753 35.298958,10.998262 35.173798,12.844051 
	C34.740353,19.236012 34.516750,25.642202 33.687843,31.546749 
	C31.778116,30.564766 29.941946,29.373446 27.934969,28.668224 
	C26.379786,28.121758 24.611055,28.183018 22.241966,28.130871 
	C22.025013,28.227692 21.808060,28.324512 21.046431,28.340815 
	C20.698864,28.224289 20.351295,28.107761 20.001743,27.410555 
	C19.840900,27.164330 19.680056,26.918104 19.519213,26.671879 
	C19.414001,27.204870 19.308790,27.737860 19.035881,28.982853 
	C22.526255,34.426476 28.499281,35.815056 34.057140,38.838272 
	C34.659874,39.195831 35.262608,39.553394 35.859379,40.459538 
	C35.929024,40.628624 35.998665,40.797714 35.940784,41.900986 
	C35.933472,53.519329 35.982845,65.138222 35.869987,76.755539 
	C35.847988,79.020340 35.195618,81.279030 34.240128,83.327759 
	C30.826422,81.913666 27.412718,80.499573 23.208454,78.949821 
	C21.862816,79.776199 20.517176,80.602577 19.171535,81.428947 
	C19.790686,82.251030 20.409836,83.073105 21.459843,84.432030 
	C24.998543,85.854538 28.537243,87.277054 32.561756,89.119736 
	C33.330723,89.428627 34.099689,89.737518 35.039486,90.572540 
	C35.335926,90.739441 35.632362,90.906349 35.981178,91.356354 
	C35.981178,91.356354 36.122143,91.607376 35.986435,92.595261 
	C35.932987,103.684898 35.879536,114.774529 35.361984,125.903442 
	C35.361984,125.903442 34.897060,125.941978 34.648849,125.745781 
	C34.648849,125.745781 34.365955,125.887459 33.889133,125.346321 
	C29.360125,123.763954 24.838137,122.160233 20.281248,120.662704 
	C20.054871,120.588318 19.524986,121.437485 19.155699,122.610420 
	C19.133648,123.112556 19.111595,123.614700 18.977461,124.836990 
	C19.737617,125.663467 20.342461,126.839226 21.283964,127.257881 
	C26.192976,129.440765 31.187590,131.431137 35.976162,134.476761 
	C35.954258,137.969543 36.006248,141.464676 35.895485,144.954636 
	C35.643764,152.886154 35.312042,160.815140 34.307644,168.936813 
	C31.932060,168.259369 29.530693,167.657959 27.194059,166.865646 
	C26.306152,166.564590 25.578428,165.392471 24.757956,165.370972 
	C22.820103,165.320190 20.870399,165.721756 18.925488,165.940384 
	C18.910656,166.482025 18.895823,167.023682 18.880991,167.565338 
	C20.744495,168.483932 22.598602,169.422241 24.473427,170.317123 
	C28.606434,172.289871 32.749893,174.240707 37.249908,176.863922 
	C39.041622,177.156097 41.001476,178.044739 42.584984,177.598343 
	C44.866966,176.955048 46.875526,175.341843 49.706100,173.982132 
	C52.154022,172.646423 54.640152,171.375732 57.042931,169.963242 
	C65.345551,165.082489 73.619133,160.152328 82.636734,155.036362 
	C84.775726,153.707565 86.914719,152.378769 89.766762,150.961182 
	C96.401794,147.246201 102.866745,143.173004 109.720558,139.918808 
	C116.339066,136.776352 120.713783,129.934082 128.489838,128.841248 
	C128.699997,128.811707 128.844940,128.318069 129.001694,128.008698 
	C129.001694,128.008698 129.033371,128.026566 129.521057,127.863861 
	C129.709015,127.585403 129.896973,127.306946 130.547226,126.946632 
	C130.547226,126.946632 130.999130,126.819283 131.642548,126.933441 
	C132.444031,126.301346 133.245499,125.669258 133.997025,125.004562 
	C133.997025,125.004562 134.034134,125.051872 134.695953,124.951805 
	C135.817566,124.316429 136.939178,123.681046 138.003967,123.008171 
	C138.003967,123.008171 138.021225,123.074036 138.628006,122.992943 
	C139.100189,122.679169 139.572357,122.365387 140.009735,122.001709 
	C140.009735,122.001709 140.037216,122.050247 140.508438,121.862450 
z"/>
<path fill="#4312A5" opacity="1.000000" stroke="none" 
	d="
M34.213287,32.042976 
	C34.516750,25.642202 34.740353,19.236012 35.173798,12.844051 
	C35.298958,10.998262 35.677193,7.870753 36.550610,7.639523 
	C38.489491,7.126218 41.140858,7.500737 42.931801,8.517346 
	C57.242012,16.640381 71.385658,25.055979 85.644836,33.269981 
	C108.392220,46.373623 131.182281,59.403282 153.968674,72.439079 
	C164.073730,78.220062 174.258041,83.863976 184.314728,89.727318 
	C187.940033,91.840981 187.964325,94.715775 184.415176,96.799408 
	C175.649094,101.945793 166.780457,106.918205 157.930832,111.921272 
	C154.264313,113.994095 150.541138,115.966660 146.245422,118.119080 
	C145.439743,118.522415 145.232361,118.791489 145.024963,119.060562 
	C145.024963,119.060555 145.008713,118.998878 144.654846,119.009361 
	C143.213104,119.695007 142.125229,120.370171 141.037369,121.045326 
	C141.037369,121.045326 140.994644,121.015053 140.800980,121.136642 
	C140.335449,121.463333 140.145416,121.727333 140.037216,122.050247 
	C140.037216,122.050247 140.009735,122.001709 139.725754,122.043007 
	C138.968246,122.414215 138.494736,122.744118 138.021225,123.074036 
	C138.021225,123.074036 138.003967,123.008171 137.654236,123.014999 
	C136.214386,123.698509 135.124252,124.375191 134.034134,125.051872 
	C134.034134,125.051872 133.997025,125.004562 133.682297,125.016541 
	C132.578094,125.625443 131.788620,126.222366 130.999130,126.819290 
	C130.999130,126.819283 130.547226,126.946632 130.091644,127.096741 
	C129.354034,127.444038 129.153137,127.703941 129.033371,128.026566 
	C129.033371,128.026566 129.001694,128.008698 128.610062,128.011444 
	C125.889404,127.972015 123.337975,128.307129 123.196213,124.668770 
	C132.272278,119.191193 141.130005,113.969765 150.281464,108.680115 
	C150.980850,108.002625 151.386520,107.393341 152.156158,106.762421 
	C155.715347,104.842201 158.910553,102.943619 162.422913,100.912598 
	C166.860672,98.271004 170.981308,95.761864 175.684479,92.898018 
	C130.777191,67.055847 86.694000,41.687912 42.008038,15.973108 
	C42.008038,18.665894 42.076443,20.613214 41.993908,22.554119 
	C41.817871,26.693840 41.563568,30.830235 41.366688,35.078068 
	C41.392044,35.188145 41.026028,35.444790 40.701546,35.173328 
	C38.577545,34.271515 36.778019,33.641167 34.790482,32.896614 
	C34.315338,32.618748 34.185612,32.372269 34.213287,32.042976 
z"/>
<path fill="#E4E2E1" opacity="1.000000" stroke="none" 
	d="
M36.122143,91.607376 
	C36.122143,91.607376 35.981178,91.356354 35.838490,90.989090 
	C35.420086,90.430016 35.144371,90.238213 34.868660,90.046402 
	C34.099689,89.737518 33.330723,89.428627 32.331718,88.545738 
	C30.591995,86.315224 29.161446,84.575905 27.545004,83.031090 
	C26.454180,81.988594 25.101213,81.220390 23.907871,80.019455 
	C23.966497,79.501434 23.982758,79.293457 23.999016,79.085480 
	C27.412718,80.499573 30.826422,81.913666 34.778496,83.535431 
	C37.403339,84.488098 39.489811,85.233093 41.850346,86.236710 
	C46.375210,88.805847 50.626011,91.116379 54.943481,93.753616 
	C64.604050,98.413963 74.197945,102.747589 84.092377,107.322632 
	C85.661850,107.867584 87.039871,107.949158 88.182083,108.510544 
	C95.820915,112.265015 103.409485,116.121735 110.951294,120.266876 
	C109.795631,120.674965 108.630310,121.050934 107.623024,120.797867 
	C103.251389,119.699570 98.925850,118.417801 94.297470,117.176033 
	C93.311630,116.872215 92.611877,116.595085 91.786209,116.005409 
	C90.434464,115.218079 89.208626,114.743294 87.745163,114.012657 
	C85.648132,112.844765 83.788712,111.932724 81.912926,110.755180 
	C81.607941,110.447227 81.319336,110.404778 80.673492,110.284111 
	C78.572456,109.387543 76.828651,108.569191 75.005737,107.411438 
	C72.933289,106.393349 70.939949,105.714653 68.712692,104.998337 
	C68.478767,104.960724 68.108086,104.665558 68.055542,104.344162 
	C66.008690,103.305405 64.014389,102.588036 61.624001,101.817383 
	C60.510773,101.423752 59.793629,101.083397 59.080200,100.439301 
	C58.197071,99.949577 57.310234,99.763596 56.048706,99.560089 
	C50.907124,97.671577 46.140232,95.800591 41.295486,93.698486 
	C41.217632,93.467361 40.991104,93.035393 40.766457,92.796829 
	C40.129387,92.423546 39.716969,92.288826 38.981190,92.202042 
	C37.812603,92.035774 36.967373,91.821579 36.122143,91.607376 
z"/>
<path fill="#4415A4" opacity="1.000000" stroke="none" 
	d="
M122.977875,124.924927 
	C123.337975,128.307129 125.889404,127.972015 128.619354,128.027512 
	C128.844940,128.318069 128.699997,128.811707 128.489838,128.841248 
	C120.713783,129.934082 116.339066,136.776352 109.720558,139.918808 
	C102.866745,143.173004 96.401794,147.246201 89.116119,150.822723 
	C86.361977,149.668808 84.258476,148.653320 82.073616,147.388489 
	C81.978951,146.964951 81.965660,146.790756 82.311920,146.737946 
	C92.129074,141.598190 101.586670,136.337051 111.373764,131.031250 
	C112.484558,130.568573 113.265854,130.150574 114.419098,129.807129 
	C117.867996,130.283752 119.973183,129.335892 120.529510,125.739189 
	C121.499092,125.349503 122.238487,125.137215 122.977875,124.924927 
z"/>
<path fill="#4212A3" opacity="1.000000" stroke="none" 
	d="
M81.903763,155.240982 
	C73.619133,160.152328 65.345551,165.082489 57.042931,169.963242 
	C54.640152,171.375732 52.154022,172.646423 49.052650,173.879852 
	C46.830864,172.805969 45.262531,171.834351 43.889961,170.567810 
	C46.198559,168.961853 48.295002,167.623505 50.427135,166.344666 
	C58.531345,161.483734 66.647102,156.642059 74.974548,151.771454 
	C75.190544,151.749741 75.610252,151.868179 75.610252,151.868179 
	C75.610252,151.868179 76.044487,151.827271 76.306595,152.049133 
	C78.347061,153.261002 80.125412,154.250992 81.903763,155.240982 
z"/>
<path fill="#4412A8" opacity="1.000000" stroke="none" 
	d="
M41.576279,85.978088 
	C39.489811,85.233093 37.403339,84.488098 35.075436,83.641815 
	C35.195618,81.279030 35.847988,79.020340 35.869987,76.755539 
	C35.982845,65.138222 35.933472,53.519329 36.327713,41.381641 
	C38.069523,40.287792 39.424404,39.713291 40.991058,39.212021 
	C41.517643,39.373329 41.722389,39.573780 41.748749,40.010109 
	C41.680431,40.133617 41.601681,40.405399 41.407654,40.633858 
	C41.700409,41.837234 42.187187,42.812153 42.389362,44.054062 
	C41.820793,46.083187 41.288280,47.845978 41.292885,49.607368 
	C41.324554,61.731106 41.468472,73.854553 41.576279,85.978088 
z"/>
<path fill="#4210A8" opacity="1.000000" stroke="none" 
	d="
M36.054291,92.101318 
	C36.967373,91.821579 37.812603,92.035774 39.175789,92.483002 
	C40.126198,92.822487 40.558651,92.928940 40.991104,93.035393 
	C40.991104,93.035393 41.217632,93.467361 41.240471,94.168716 
	C41.249825,104.349846 41.285763,113.830139 41.184124,123.308968 
	C41.161915,125.380226 40.648666,127.446213 40.076942,129.506500 
	C38.470242,128.286957 37.148163,127.075562 35.826088,125.864166 
	C35.879536,114.774529 35.932987,103.684898 36.054291,92.101318 
z"/>
<path fill="#400DA7" opacity="1.000000" stroke="none" 
	d="
M35.012840,168.745148 
	C35.312042,160.815140 35.643764,152.886154 35.895485,144.954636 
	C36.006248,141.464676 35.954258,137.969543 36.445366,134.079315 
	C38.366272,134.169098 39.817974,134.656311 41.244537,135.478287 
	C41.329258,136.242615 41.439114,136.672165 41.453644,137.552856 
	C41.286888,148.636536 41.215466,159.269089 40.762146,169.877960 
	C38.919716,169.592712 37.459183,169.331146 35.753067,168.985809 
	C35.342602,168.849762 35.177723,168.797455 35.012840,168.745148 
z"/>
<path fill="#E6E0E7" opacity="1.000000" stroke="none" 
	d="
M82.270248,155.138672 
	C80.125412,154.250992 78.347061,153.261002 76.299591,151.673477 
	C76.003365,146.813477 72.925903,145.885773 69.626213,144.811279 
	C67.248016,144.036865 63.582714,144.105804 64.657074,139.858688 
	C70.729851,142.477036 76.442421,145.057434 82.154984,147.637848 
	C84.258476,148.653320 86.361977,149.668808 88.759590,150.867126 
	C86.914719,152.378769 84.775726,153.707565 82.270248,155.138672 
z"/>
<path fill="#C8C2CC" opacity="1.000000" stroke="none" 
	d="
M34.660240,168.840973 
	C35.177723,168.797455 35.342602,168.849762 35.789200,169.318542 
	C36.343639,171.890182 36.616364,174.045334 36.889084,176.200485 
	C32.749893,174.240707 28.606434,172.289871 24.473427,170.317123 
	C22.598602,169.422241 20.744495,168.483932 18.880991,167.565338 
	C18.895823,167.023682 18.910656,166.482025 18.925488,165.940384 
	C20.870399,165.721756 22.820103,165.320190 24.757956,165.370972 
	C25.578428,165.392471 26.306152,166.564590 27.194059,166.865646 
	C29.530693,167.657959 31.932060,168.259369 34.660240,168.840973 
z"/>
<path fill="#BBBAB9" opacity="1.000000" stroke="none" 
	d="
M33.950562,31.794863 
	C34.185612,32.372269 34.315338,32.618748 34.772972,33.191795 
	C34.928886,33.797787 34.914299,33.994404 34.566895,34.107903 
	C32.963104,33.529411 31.692129,33.034027 30.242994,32.380409 
	C29.794882,32.049267 29.508976,31.908854 29.024891,31.579151 
	C28.316591,31.138403 27.790510,30.919436 27.025473,30.489864 
	C26.077715,30.146072 25.368912,30.012884 24.660110,29.879694 
	C24.595650,30.104599 24.531189,30.329504 24.466726,30.554409 
	C25.170496,30.872185 25.874268,31.189960 26.779179,31.712170 
	C27.510914,32.132191 28.041508,32.347775 28.701347,32.739166 
	C29.065676,33.101284 29.313519,33.268715 29.832672,33.641350 
	C31.369003,35.276390 32.646786,36.687340 33.924568,38.098286 
	C28.499281,35.815056 22.526255,34.426476 19.340157,28.615295 
	C19.644434,28.247740 20.003729,27.991236 20.003729,27.991236 
	C20.351295,28.107761 20.698864,28.224289 21.535906,28.636116 
	C22.329338,28.612320 22.633295,28.293224 22.937252,27.974129 
	C24.611055,28.183018 26.379786,28.121758 27.934969,28.668224 
	C29.941946,29.373446 31.778116,30.564766 33.950562,31.794863 
z"/>
<path fill="#C8C2CC" opacity="1.000000" stroke="none" 
	d="
M41.269676,135.143524 
	C39.817974,134.656311 38.366272,134.169098 36.533493,133.585175 
	C31.187590,131.431137 26.192976,129.440765 21.283964,127.257881 
	C20.342461,126.839226 19.737617,125.663467 19.406406,124.433487 
	C22.473064,124.991310 25.062326,126.132622 27.763117,126.859596 
	C30.117994,127.493454 32.598637,127.660095 35.273140,128.298157 
	C36.758911,131.374344 38.580490,132.799759 42.316681,131.107635 
	C43.318962,131.223907 43.697334,131.401413 43.625099,131.658463 
	C43.174492,132.773834 43.174492,133.809662 43.174492,134.877884 
	C42.574615,134.961533 41.922146,135.052536 41.269676,135.143524 
z"/>
<path fill="#D1C2E7" opacity="1.000000" stroke="none" 
	d="
M37.069496,176.532196 
	C36.616364,174.045334 36.343639,171.890182 36.034782,169.402298 
	C37.459183,169.331146 38.919716,169.592712 40.979343,170.061157 
	C42.283688,170.466248 42.988941,170.664490 43.694195,170.862732 
	C45.262531,171.834351 46.830864,172.805969 48.699982,173.960068 
	C46.875526,175.341843 44.866966,176.955048 42.584984,177.598343 
	C41.001476,178.044739 39.041622,177.156097 37.069496,176.532196 
z"/>
<path fill="#BBBAB9" opacity="1.000000" stroke="none" 
	d="
M23.865509,80.329491 
	C25.101213,81.220390 26.454180,81.988594 27.545004,83.031090 
	C29.161446,84.575905 30.591995,86.315224 32.088814,88.335648 
	C28.537243,87.277054 24.998543,85.854538 21.367521,83.859688 
	C22.138636,82.301392 23.002073,81.315445 23.865509,80.329491 
z"/>
<path fill="#434142" opacity="1.000000" stroke="none" 
	d="
M35.023712,128.033173 
	C32.598637,127.660095 30.117994,127.493454 27.763117,126.859596 
	C25.062326,126.132622 22.473064,124.991310 19.462448,124.073410 
	C19.111595,123.614700 19.133648,123.112556 19.525522,122.259796 
	C23.429426,123.197701 26.933498,124.580429 30.514595,125.721382 
	C31.696091,126.097801 33.076500,125.849892 34.365955,125.887451 
	C34.365955,125.887459 34.648849,125.745781 34.835724,126.189102 
	C35.022968,127.099335 35.023342,127.566254 35.023712,128.033173 
z"/>
<path fill="#AAA8A7" opacity="1.000000" stroke="none" 
	d="
M34.127544,125.616882 
	C33.076500,125.849892 31.696091,126.097801 30.514595,125.721382 
	C26.933498,124.580429 23.429426,123.197701 19.515884,121.882889 
	C19.524986,121.437485 20.054871,120.588318 20.281248,120.662704 
	C24.838137,122.160233 29.360125,123.763954 34.127544,125.616882 
z"/>
<path fill="#886DBD" opacity="1.000000" stroke="none" 
	d="
M35.273140,128.298157 
	C35.023342,127.566254 35.022968,127.099335 34.959827,126.287201 
	C34.897060,125.941978 35.361984,125.903442 35.594032,125.883804 
	C37.148163,127.075562 38.470242,128.286957 40.157333,129.773926 
	C40.912487,130.422623 41.302628,130.795746 41.692768,131.168869 
	C38.580490,132.799759 36.758911,131.374344 35.273140,128.298157 
z"/>
<path fill="#6B6969" opacity="1.000000" stroke="none" 
	d="
M33.990852,38.468277 
	C32.646786,36.687340 31.369003,35.276390 30.048445,33.425568 
	C30.144163,32.836678 30.282660,32.687660 30.421156,32.538647 
	C31.692129,33.034027 32.963104,33.529411 34.693611,34.323837 
	C35.495598,34.986488 35.838047,35.350086 36.157974,36.138916 
	C36.045414,37.679749 35.955376,38.795349 35.865341,39.910954 
	C35.262608,39.553394 34.659874,39.195831 33.990852,38.468277 
z"/>
<path fill="#E6E2E3" opacity="1.000000" stroke="none" 
	d="
M23.907873,80.019455 
	C23.002073,81.315445 22.138636,82.301392 21.152092,83.591263 
	C20.409836,83.073105 19.790686,82.251030 19.171535,81.428947 
	C20.517176,80.602577 21.862816,79.776199 23.603735,79.017654 
	C23.982758,79.293457 23.966497,79.501434 23.907873,80.019455 
z"/>
<path fill="#886DBD" opacity="1.000000" stroke="none" 
	d="
M35.862358,40.185246 
	C35.955376,38.795349 36.045414,37.679749 36.472061,36.263840 
	C38.152912,36.759724 39.497154,37.555908 40.856747,38.551205 
	C40.872093,38.750317 40.779289,39.138790 40.779289,39.138790 
	C39.424404,39.713291 38.069523,40.287792 36.391476,40.914551 
	C35.998665,40.797714 35.929024,40.628624 35.862358,40.185246 
z"/>
<path fill="#4415A4" opacity="1.000000" stroke="none" 
	d="
M141.381516,121.012085 
	C142.125229,120.370171 143.213104,119.695007 144.678391,119.030869 
	C143.945770,119.687553 142.835709,120.333199 141.381516,121.012085 
z"/>
<path fill="#4415A4" opacity="1.000000" stroke="none" 
	d="
M134.365051,125.001839 
	C135.124252,124.375191 136.214386,123.698509 137.682648,123.033752 
	C136.939178,123.681046 135.817566,124.316429 134.365051,125.001839 
z"/>
<path fill="#4415A4" opacity="1.000000" stroke="none" 
	d="
M131.320831,126.876366 
	C131.788620,126.222366 132.578094,125.625443 133.707275,125.032845 
	C133.245499,125.669258 132.444031,126.301346 131.320831,126.876366 
z"/>
<path fill="#363535" opacity="1.000000" stroke="none" 
	d="
M20.002735,27.700895 
	C20.003729,27.991236 19.644434,28.247740 19.424007,28.259296 
	C19.308790,27.737860 19.414001,27.204870 19.519213,26.671879 
	C19.680056,26.918104 19.840900,27.164330 20.002735,27.700895 
z"/>
<path fill="#4415A4" opacity="1.000000" stroke="none" 
	d="
M138.324615,123.033485 
	C138.494736,122.744118 138.968246,122.414215 139.743164,122.067963 
	C139.572357,122.365387 139.100189,122.679169 138.324615,123.033485 
z"/>
<path fill="#4415A4" opacity="1.000000" stroke="none" 
	d="
M140.272827,121.956345 
	C140.145416,121.727333 140.335449,121.463333 140.825623,121.142639 
	C140.865433,121.305511 140.686935,121.583977 140.272827,121.956345 
z"/>
<path fill="#4415A4" opacity="1.000000" stroke="none" 
	d="
M145.270538,118.966644 
	C145.232361,118.791489 145.439743,118.522415 145.878998,118.140007 
	C145.912613,118.308685 145.714355,118.590698 145.270538,118.966644 
z"/>
<path fill="#4415A4" opacity="1.000000" stroke="none" 
	d="
M129.277222,127.945213 
	C129.153137,127.703941 129.354034,127.444038 129.860489,127.137665 
	C129.896973,127.306946 129.709015,127.585403 129.277222,127.945213 
z"/>
<path fill="#E6E2E3" opacity="1.000000" stroke="none" 
	d="
M34.954071,90.309479 
	C35.144371,90.238213 35.420086,90.430016 35.812302,90.847534 
	C35.632362,90.906349 35.335926,90.739441 34.954071,90.309479 
z"/>
<path fill="#363535" opacity="1.000000" stroke="none" 
	d="
M22.589609,28.052502 
	C22.633295,28.293224 22.329338,28.612320 21.808243,28.676376 
	C21.808060,28.324512 22.025013,28.227692 22.589609,28.052502 
z"/>
<path fill="#050405" opacity="1.000000" stroke="none" 
	d="
M41.850342,86.236710 
	C41.468472,73.854553 41.324554,61.731106 41.292885,49.607368 
	C41.288280,47.845978 41.820793,46.083187 42.758942,44.182159 
	C45.861778,45.505909 48.310429,46.968548 50.966866,48.635239 
	C51.741253,48.948830 52.307865,49.058369 53.006283,49.470486 
	C55.094894,50.488983 57.051701,51.204903 59.332993,52.084427 
	C60.526749,52.606613 61.661854,52.728283 62.224773,53.359898 
	C68.932442,60.886154 78.644859,63.245987 87.162506,68.219727 
	C92.891304,71.327202 98.467957,74.123878 104.323471,77.120651 
	C109.300209,79.928810 113.998070,82.536873 118.887016,85.422310 
	C120.284950,86.553078 121.475807,87.430206 122.701225,88.256050 
	C131.803741,94.390495 140.913132,100.514763 150.011978,106.993584 
	C149.998291,107.812744 149.993011,108.280533 149.987732,108.748329 
	C141.130005,113.969765 132.272278,119.191193 123.196213,124.668777 
	C122.238487,125.137215 121.499092,125.349503 120.180084,125.669662 
	C116.738434,123.833435 113.876404,121.889351 111.014374,119.945267 
	C103.409485,116.121735 95.820915,112.265015 88.182083,108.510544 
	C87.039871,107.949158 85.661850,107.867584 83.910965,107.034729 
	C79.473419,104.358818 75.627533,101.968681 71.535248,100.125610 
	C66.082764,97.669945 60.438622,95.639824 54.876812,93.426910 
	C50.626011,91.116379 46.375210,88.805847 41.850342,86.236710 
M57.446682,90.864761 
	C57.446682,82.713936 57.446682,74.563103 57.446682,66.412277 
	C57.329338,66.412872 57.211990,66.413467 57.094646,66.414070 
	C57.094646,74.357292 57.094646,82.300514 57.446682,90.864761 
z"/>
<path fill="#000000" opacity="1.000000" stroke="none" 
	d="
M41.341331,34.967991 
	C41.563568,30.830235 41.817871,26.693840 41.993908,22.554119 
	C42.076443,20.613214 42.008038,18.665894 42.008038,15.973108 
	C86.694000,41.687912 130.777191,67.055847 175.684479,92.898018 
	C170.981308,95.761864 166.860672,98.271004 162.044037,100.889122 
	C156.892151,98.665901 152.436279,96.333710 147.784821,93.731339 
	C140.503510,89.270554 133.427322,85.063751 126.329987,80.892952 
	C114.140327,73.729614 102.025284,66.430763 89.670876,59.563042 
	C86.990028,58.072777 83.430489,58.163216 80.144257,57.523624 
	C80.012848,57.521645 79.894669,57.286884 79.910950,56.896927 
	C79.335320,55.429394 79.019707,53.891106 78.109077,53.344982 
	C68.174927,47.387226 58.174282,41.537590 48.088631,35.841076 
	C47.382641,35.442326 45.859734,36.489929 44.261215,36.691940 
	C42.984261,36.001945 42.162796,35.484966 41.341331,34.967991 
z"/>
<path fill="#0A080C" opacity="1.000000" stroke="none" 
	d="
M147.980423,94.001526 
	C152.436279,96.333710 156.892151,98.665901 161.726898,101.021561 
	C158.910553,102.943619 155.715347,104.842201 152.145615,106.749847 
	C151.771103,106.758911 151.748444,106.734772 151.613861,106.443665 
	C151.317917,105.105301 151.156555,104.058029 151.013412,102.635078 
	C150.014557,99.506767 148.997498,96.754143 147.980423,94.001526 
z"/>
<path fill="#CAC8C8" opacity="1.000000" stroke="none" 
	d="
M41.366688,35.078068 
	C42.162796,35.484966 42.984261,36.001945 44.406067,36.901611 
	C47.668819,38.867661 50.331223,40.451019 52.977684,42.325985 
	C52.668983,43.335129 52.376228,44.052666 51.745560,44.686394 
	C50.284161,44.391563 49.160671,44.180538 48.017929,43.986809 
	C47.998672,44.004108 48.049286,44.014999 48.018391,43.730095 
	C47.659241,43.280602 47.330982,43.116013 47.000557,42.977417 
	C46.998390,43.003410 47.045475,42.980946 46.904724,42.667370 
	C45.511951,41.885048 44.259922,41.416302 43.003441,40.974453 
	C42.998981,41.001350 43.049080,40.979828 43.041985,40.646294 
	C42.628952,40.170708 42.223011,40.028656 41.817070,39.886600 
	C41.722389,39.573780 41.517643,39.373329 40.991058,39.212021 
	C40.779289,39.138790 40.872093,38.750317 40.896088,38.257347 
	C40.955399,36.991180 40.990715,36.217987 41.026031,35.444790 
	C41.026028,35.444790 41.392044,35.188145 41.366688,35.078068 
z"/>
<path fill="#C8C2CC" opacity="1.000000" stroke="none" 
	d="
M40.701550,35.173328 
	C40.990715,36.217987 40.955399,36.991180 40.880741,38.058235 
	C39.497154,37.555908 38.152912,36.759724 36.494583,35.838615 
	C35.838047,35.350086 35.495598,34.986488 35.026428,34.406952 
	C34.914299,33.994404 34.928886,33.797787 34.960983,33.305996 
	C36.778019,33.641167 38.577545,34.271515 40.701550,35.173328 
z"/>
<path fill="#0A080C" opacity="1.000000" stroke="none" 
	d="
M150.281464,108.680115 
	C149.993011,108.280533 149.998291,107.812744 150.289032,106.832397 
	C150.965805,106.458160 151.357117,106.596466 151.748444,106.734772 
	C151.748444,106.734772 151.771103,106.758911 151.781647,106.771484 
	C151.386520,107.393341 150.980850,108.002625 150.281464,108.680115 
z"/>
<path fill="#0A080C" opacity="1.000000" stroke="none" 
	d="
M42.316681,131.107635 
	C41.302628,130.795746 40.912487,130.422623 40.441956,129.782074 
	C40.648666,127.446213 41.161915,125.380226 41.184124,123.308968 
	C41.285763,113.830139 41.249825,104.349846 41.318321,94.399841 
	C46.140232,95.800591 50.907124,97.671577 56.191788,99.794914 
	C56.968559,100.528503 57.227554,101.009735 57.360725,101.986145 
	C57.166668,111.798752 57.080402,121.116173 57.078312,130.433624 
	C57.078197,130.951355 57.774780,131.469254 58.509636,132.008118 
	C60.582153,133.681549 62.292103,135.333939 64.227646,137.251984 
	C70.286278,140.550629 76.119316,143.583603 81.952362,146.616577 
	C81.965660,146.790756 81.978951,146.964951 82.073616,147.388489 
	C76.442421,145.057434 70.729851,142.477036 64.625854,139.875473 
	C64.234421,139.854324 64.303291,139.857269 64.188805,139.597809 
	C63.725090,139.250473 63.375866,139.162582 62.723873,138.853882 
	C58.545326,135.440994 53.993912,134.153076 49.015923,133.569733 
	C48.544827,132.672592 48.133823,132.103745 47.722824,131.534897 
	C47.303959,132.321533 46.885086,133.108154 46.376724,133.649231 
	C45.550053,132.795425 44.812878,132.187180 44.075703,131.578934 
	C43.697334,131.401413 43.318962,131.223907 42.316681,131.107635 
z"/>
<path fill="#010101" opacity="1.000000" stroke="none" 
	d="
M64.002052,136.986328 
	C62.292103,135.333939 60.582153,133.681549 58.472473,131.541077 
	C58.084530,121.697815 58.096313,112.342621 58.306057,102.807846 
	C58.605999,102.292000 58.707977,101.955727 58.956814,101.424744 
	C59.103672,101.230042 59.076485,100.743042 59.076485,100.743042 
	C59.793629,101.083397 60.510773,101.423752 61.777733,102.126755 
	C64.254402,103.214790 66.181244,103.940170 68.108086,104.665558 
	C68.108086,104.665558 68.478767,104.960724 68.855141,105.310638 
	C71.182625,106.357315 73.133728,107.054077 75.084839,107.750839 
	C76.828651,108.569191 78.572456,109.387543 80.784943,110.440155 
	C81.445541,110.854790 81.670769,110.970215 81.929298,111.020683 
	C83.788712,111.932724 85.648132,112.844765 87.737350,114.363480 
	C88.143936,118.750969 89.631668,118.694626 91.912132,116.317947 
	C92.611877,116.595085 93.311630,116.872215 94.358109,117.474739 
	C94.911636,118.144768 95.118439,118.489410 94.956642,119.000557 
	C91.404030,119.444603 88.220024,119.722130 85.008316,119.765274 
	C84.819244,119.290657 84.657883,119.050438 84.496513,118.810211 
	C84.322876,119.207657 84.149239,119.605110 83.731628,120.001785 
	C83.487648,120.001007 82.999695,119.999695 82.950050,119.886719 
	C82.900406,119.773750 82.598259,119.758102 82.598259,119.758102 
	C82.598259,119.758102 82.999695,119.999695 82.998581,120.384369 
	C81.960831,126.342865 80.459991,127.325127 74.834435,125.808372 
	C74.284805,125.673462 73.905357,125.730316 73.525902,125.787178 
	C74.016449,126.189522 74.507004,126.591866 74.946503,127.345749 
	C73.963486,128.506882 73.038704,129.324921 72.098183,130.124466 
	C69.402893,132.415787 66.701218,134.699570 64.002052,136.986328 
M64.326645,131.950256 
	C64.185028,131.459412 64.043419,130.968582 63.901798,130.477737 
	C63.415291,130.968658 62.928787,131.459595 62.442284,131.950531 
	C62.934059,132.086990 63.425838,132.223450 64.326645,131.950256 
M68.772972,129.454315 
	C68.840042,129.077164 68.907112,128.699997 68.974182,128.322845 
	C68.473076,128.490234 67.971970,128.657623 67.470863,128.825012 
	C67.744469,129.100952 68.018074,129.376892 68.772972,129.454315 
M77.488388,124.555321 
	C77.488388,124.555321 77.450195,124.480934 77.488388,124.555321 
z"/>
<path fill="#C6C3C4" opacity="1.000000" stroke="none" 
	d="
M95.325241,118.834045 
	C95.118439,118.489410 94.911636,118.144768 94.644196,117.501427 
	C98.925850,118.417801 103.251389,119.699570 107.623024,120.797867 
	C108.630310,121.050934 109.795631,120.674965 110.951294,120.266876 
	C113.876404,121.889351 116.738434,123.833435 119.949890,125.847054 
	C119.973183,129.335892 117.867996,130.283752 114.245316,129.567459 
	C112.798523,128.851028 111.897469,128.448792 110.829132,127.776413 
	C109.370476,126.883751 108.079117,126.261223 106.644905,125.306320 
	C105.673492,124.579231 104.844925,124.184517 103.819901,123.509239 
	C100.857376,121.763809 98.091309,120.298927 95.325241,118.834045 
z"/>
<path fill="#AAA8A7" opacity="1.000000" stroke="none" 
	d="
M54.943481,93.753624 
	C60.438622,95.639824 66.082764,97.669945 71.535248,100.125610 
	C75.627533,101.968681 79.473419,104.358818 83.610428,106.793304 
	C74.197945,102.747589 64.604050,98.413963 54.943481,93.753624 
z"/>
<path fill="#AAA8A7" opacity="1.000000" stroke="none" 
	d="
M68.055542,104.344162 
	C66.181244,103.940170 64.254402,103.214790 62.173820,102.180038 
	C64.014389,102.588036 66.008690,103.305405 68.055542,104.344162 
z"/>
<path fill="#0A080C" opacity="1.000000" stroke="none" 
	d="
M91.786209,116.005402 
	C89.631668,118.694626 88.143936,118.750969 87.974968,114.619339 
	C89.208626,114.743294 90.434464,115.218079 91.786209,116.005402 
z"/>
<path fill="#AAA8A7" opacity="1.000000" stroke="none" 
	d="
M75.005737,107.411438 
	C73.133728,107.054077 71.182625,106.357315 69.089066,105.348259 
	C70.939949,105.714653 72.933289,106.393349 75.005737,107.411438 
z"/>
<path fill="#AAA8A7" opacity="1.000000" stroke="none" 
	d="
M57.486549,101.490974 
	C57.227554,101.009735 56.968559,100.528503 56.566479,99.812439 
	C57.310234,99.763596 58.197071,99.949577 59.080200,100.439301 
	C59.076485,100.743042 59.103672,101.230042 58.648056,101.306641 
	C57.986950,101.464500 57.781460,101.545769 57.552116,101.594009 
	C57.528255,101.560982 57.486549,101.490974 57.486549,101.490974 
z"/>
<path fill="#E6E2E3" opacity="1.000000" stroke="none" 
	d="
M40.766457,92.796829 
	C40.558651,92.928940 40.126198,92.822487 39.499146,92.435074 
	C39.716969,92.288826 40.129387,92.423546 40.766457,92.796829 
z"/>
<path fill="#0A080C" opacity="1.000000" stroke="none" 
	d="
M81.912926,110.755180 
	C81.670769,110.970215 81.445541,110.854790 81.142166,110.518372 
	C81.319336,110.404778 81.607941,110.447227 81.912926,110.755180 
z"/>
<path fill="#000001" opacity="1.000000" stroke="none" 
	d="
M106.787750,125.638687 
	C108.079117,126.261223 109.370476,126.883751 110.822144,128.155045 
	C111.003059,129.561172 111.023659,130.318558 111.044266,131.075928 
	C101.586670,136.337051 92.129074,141.598190 82.311920,146.737946 
	C76.119316,143.583603 70.286278,140.550629 64.227646,137.251984 
	C66.701218,134.699570 69.402893,132.415787 72.098183,130.124466 
	C73.038704,129.324921 73.963486,128.506882 74.947845,127.097260 
	C75.000237,126.497238 75.004608,126.000145 75.004608,126.000145 
	C80.459991,127.325127 81.960831,126.342865 82.998734,120.384521 
	C83.000000,120.000000 82.999695,119.999695 82.999695,119.999695 
	C82.999695,119.999695 83.487648,120.001007 83.996887,120.004990 
	C84.682762,120.005859 84.859390,120.002762 85.036011,119.999664 
	C88.220024,119.722130 91.404030,119.444603 94.956642,119.000557 
	C98.091309,120.298927 100.857376,121.763809 103.891159,123.899307 
	C105.035164,124.926186 105.911453,125.282433 106.787750,125.638687 
z"/>
<path fill="#0A080C" opacity="1.000000" stroke="none" 
	d="
M111.373764,131.031250 
	C111.023659,130.318558 111.003059,129.561172 110.989433,128.425171 
	C111.897469,128.448792 112.798523,128.851028 113.873367,129.492920 
	C113.265854,130.150574 112.484558,130.568573 111.373764,131.031250 
z"/>
<path fill="#06040A" opacity="1.000000" stroke="none" 
	d="
M43.889961,170.567810 
	C42.988941,170.664490 42.283688,170.466248 41.361237,170.084824 
	C41.215466,159.269089 41.286888,148.636536 41.766796,137.550537 
	C43.441898,137.404663 44.708523,137.712234 46.289482,138.172943 
	C50.074116,139.539017 53.544415,140.751953 57.357224,142.011505 
	C58.149376,141.958145 58.599014,141.858170 59.101406,142.004822 
	C59.751797,142.529099 60.349434,142.806763 60.931992,143.451630 
	C61.967812,144.706650 62.905262,145.805679 64.090950,146.442505 
	C67.594185,148.324036 71.195564,150.022858 74.758545,151.793167 
	C66.647102,156.642059 58.531345,161.483734 50.427135,166.344666 
	C48.295002,167.623505 46.198559,168.961853 43.889961,170.567810 
z"/>
<path fill="#CAC8C8" opacity="1.000000" stroke="none" 
	d="
M74.974548,151.771454 
	C71.195564,150.022858 67.594185,148.324036 64.090950,146.442505 
	C62.905262,145.805679 61.967812,144.706650 61.012257,143.136627 
	C60.421284,142.222336 59.734970,141.990265 59.048653,141.758194 
	C58.599014,141.858170 58.149376,141.958145 57.271591,141.681091 
	C54.245007,139.191879 51.646572,137.079697 48.912392,134.855988 
	C48.876438,134.462311 48.976231,134.180176 49.076019,133.898041 
	C53.993912,134.153076 58.545326,135.440994 62.881645,139.057922 
	C63.662548,139.607590 63.982922,139.732422 64.303291,139.857269 
	C64.303291,139.857269 64.234421,139.854324 64.265640,139.837540 
	C63.582714,144.105804 67.248016,144.036865 69.626213,144.811279 
	C72.925903,145.885773 76.003365,146.813477 76.037476,151.451614 
	C76.044487,151.827271 75.610252,151.868179 75.610252,151.868179 
	C75.610252,151.868179 75.190544,151.749741 74.974548,151.771454 
z"/>
<path fill="#AAA8A7" opacity="1.000000" stroke="none" 
	d="
M50.759087,48.431190 
	C48.310429,46.968548 45.861778,45.505909 43.043545,43.915173 
	C42.187187,42.812153 41.700409,41.837234 41.740467,40.858070 
	C42.527897,40.895828 42.788486,40.937828 43.049080,40.979828 
	C43.049080,40.979828 42.998981,41.001350 43.146835,41.291924 
	C44.544949,42.048649 45.795212,42.514797 47.045475,42.980946 
	C47.045475,42.980946 46.998390,43.003410 47.053284,43.246376 
	C47.421883,43.664562 47.735584,43.839779 48.049286,44.014999 
	C48.049286,44.014999 47.998672,44.004108 48.178848,44.249779 
	C49.475151,44.993649 50.591282,45.491848 51.824799,46.209717 
	C51.942188,46.429382 52.121037,46.894302 51.832809,47.089874 
	C51.282753,47.667358 51.020920,48.049274 50.759087,48.431190 
z"/>
<path fill="#6B6969" opacity="1.000000" stroke="none" 
	d="
M43.041985,40.646294 
	C42.788486,40.937828 42.527897,40.895828 41.934494,40.629616 
	C41.601681,40.405399 41.680431,40.133617 41.748749,40.010109 
	C42.223011,40.028656 42.628952,40.170708 43.041985,40.646294 
z"/>
<path fill="#434142" opacity="1.000000" stroke="none" 
	d="
M45.975147,138.019806 
	C44.708523,137.712234 43.441898,137.404663 41.862122,137.099411 
	C41.439114,136.672165 41.329258,136.242615 41.244537,135.478287 
	C41.922146,135.052536 42.574615,134.961533 43.174492,134.877884 
	C43.174492,133.809662 43.174492,132.773834 43.625099,131.658463 
	C44.812878,132.187180 45.550053,132.795425 46.537560,133.953934 
	C46.866871,134.719833 46.945850,134.935471 46.710552,135.273224 
	C46.255894,136.270157 46.115520,137.144974 45.975147,138.019806 
z"/>
<path fill="#6B6969" opacity="1.000000" stroke="none" 
	d="
M26.578037,31.507738 
	C25.874268,31.189960 25.170496,30.872185 24.466726,30.554409 
	C24.531189,30.329504 24.595650,30.104599 24.660110,29.879694 
	C25.368912,30.012884 26.077715,30.146072 26.849155,30.688118 
	C26.800543,31.233896 26.689291,31.370817 26.578037,31.507738 
z"/>
<path fill="#6B6969" opacity="1.000000" stroke="none" 
	d="
M28.572102,32.563362 
	C28.041508,32.347775 27.510914,32.132191 26.779179,31.712170 
	C26.689291,31.370817 26.800543,31.233896 27.088112,30.898722 
	C27.790510,30.919436 28.316591,31.138403 28.852707,31.758808 
	C28.862740,32.160244 28.572102,32.563362 28.572102,32.563362 
z"/>
<path fill="#6B6969" opacity="1.000000" stroke="none" 
	d="
M29.789894,33.201477 
	C29.313519,33.268715 29.065676,33.101284 28.701347,32.739166 
	C28.572102,32.563362 28.862740,32.160244 29.034925,31.980587 
	C29.508976,31.908854 29.794882,32.049267 30.242994,32.380409 
	C30.282660,32.687660 30.144163,32.836678 29.789894,33.201477 
z"/>
<path fill="#E2DFDE" opacity="1.000000" stroke="none" 
	d="
M52.083473,44.770203 
	C52.376228,44.052666 52.668983,43.335129 53.317608,42.380730 
	C62.413872,47.191540 71.154274,52.239212 79.894669,57.286888 
	C79.894669,57.286884 80.012848,57.521645 80.318802,57.820419 
	C83.138168,59.666645 85.651566,61.214092 88.188766,63.113567 
	C94.536652,66.585625 100.860748,69.705650 107.470428,73.019936 
	C110.410698,74.786903 113.115852,76.281029 115.710419,77.947365 
	C122.905823,82.568542 130.055176,87.261429 136.810150,91.958214 
	C132.015594,90.266113 127.637001,88.533089 123.249763,86.822227 
	C121.742943,86.234627 120.214500,85.702431 118.695938,85.144928 
	C113.998070,82.536873 109.300209,79.928810 104.254333,76.789566 
	C100.701813,74.358315 97.577324,72.301331 94.265221,70.612244 
	C91.981369,69.447533 89.437851,68.792015 87.010376,67.908936 
	C78.644859,63.245987 68.932442,60.886154 62.224773,53.359898 
	C61.661854,52.728283 60.526749,52.606613 59.374245,51.723282 
	C57.731819,49.789661 56.372631,48.380783 55.010994,46.995461 
	C55.008545,47.019009 55.053795,47.001667 54.877995,46.770817 
	C54.167728,46.332157 53.633263,46.124348 52.967140,45.695114 
	C52.584816,45.239193 52.334145,45.004700 52.083473,44.770203 
z"/>
<path fill="#CAC8C8" opacity="1.000000" stroke="none" 
	d="
M118.887016,85.422310 
	C120.214500,85.702431 121.742943,86.234627 123.249763,86.822227 
	C127.637001,88.533089 132.015594,90.266113 137.019287,91.959076 
	C137.640991,91.927704 138.024277,92.095161 138.171356,92.301376 
	C138.629425,92.636185 138.940430,92.764778 139.181335,92.890900 
	C139.111237,92.888420 139.143845,92.751976 139.159668,93.126938 
	C140.201218,93.977188 141.226974,94.452477 142.608017,94.934448 
	C145.640610,97.631020 148.317902,100.320892 150.995193,103.010765 
	C151.156555,104.058029 151.317917,105.105301 151.613861,106.443665 
	C151.357117,106.596466 150.965805,106.458160 150.297424,106.481033 
	C140.913132,100.514763 131.803741,94.390495 122.701225,88.256050 
	C121.475807,87.430206 120.284950,86.553078 118.887016,85.422310 
z"/>
<path fill="#949393" opacity="1.000000" stroke="none" 
	d="
M87.162506,68.219727 
	C89.437851,68.792015 91.981369,69.447533 94.265221,70.612244 
	C97.577324,72.301331 100.701813,74.358315 103.975464,76.589478 
	C98.467957,74.123878 92.891304,71.327202 87.162506,68.219727 
z"/>
<path fill="#363535" opacity="1.000000" stroke="none" 
	d="
M57.270664,90.554245 
	C57.094646,82.300514 57.094646,74.357292 57.094646,66.414070 
	C57.211990,66.413467 57.329338,66.412872 57.446682,66.412277 
	C57.446682,74.563103 57.446682,82.713936 57.270664,90.554245 
z"/>
<path fill="#6B6969" opacity="1.000000" stroke="none" 
	d="
M55.013443,46.971909 
	C56.372631,48.380783 57.731819,49.789661 59.049755,51.559681 
	C57.051701,51.204903 55.094894,50.488983 53.323772,49.345139 
	C54.010784,48.268784 54.512115,47.620346 55.013443,46.971909 
z"/>
<path fill="#CAC8C8" opacity="1.000000" stroke="none" 
	d="
M55.010994,46.995461 
	C54.512115,47.620346 54.010784,48.268784 53.191963,49.042564 
	C52.307865,49.058369 51.741253,48.948830 50.966866,48.635239 
	C51.020920,48.049274 51.282753,47.667358 52.199551,47.149612 
	C53.587608,47.009743 54.320702,47.005703 55.053795,47.001667 
	C55.053795,47.001667 55.008545,47.019009 55.010994,46.995461 
z"/>
<path fill="#222122" opacity="1.000000" stroke="none" 
	d="
M151.013412,102.635078 
	C148.317902,100.320892 145.640610,97.631020 142.507843,94.591019 
	C141.082870,93.744591 140.113358,93.248283 139.143845,92.751976 
	C139.143845,92.751976 139.111237,92.888420 139.068268,92.636124 
	C138.691620,92.287605 138.357956,92.191383 138.024277,92.095161 
	C138.024277,92.095161 137.640991,91.927704 137.431854,91.926842 
	C130.055176,87.261429 122.905823,82.568542 115.710419,77.947365 
	C113.115852,76.281029 110.410698,74.786903 107.285225,72.730988 
	C100.597946,69.085701 94.381462,65.923622 88.164970,62.761539 
	C85.651566,61.214092 83.138168,59.666645 80.450211,57.822403 
	C83.430489,58.163216 86.990028,58.072777 89.670876,59.563042 
	C102.025284,66.430763 114.140327,73.729614 126.329987,80.892952 
	C133.427322,85.063751 140.503510,89.270554 147.784821,93.731339 
	C148.997498,96.754143 150.014557,99.506767 151.013412,102.635078 
z"/>
<path fill="#222122" opacity="1.000000" stroke="none" 
	d="
M79.910950,56.896927 
	C71.154274,52.239212 62.413872,47.191540 53.333553,42.089123 
	C50.331223,40.451019 47.668819,38.867661 44.861557,37.074627 
	C45.859734,36.489929 47.382641,35.442326 48.088631,35.841076 
	C58.174282,41.537590 68.174927,47.387226 78.109077,53.344982 
	C79.019707,53.891106 79.335320,55.429394 79.910950,56.896927 
z"/>
<path fill="#949393" opacity="1.000000" stroke="none" 
	d="
M51.745560,44.686398 
	C52.334145,45.004700 52.584816,45.239193 52.619995,45.727173 
	C52.172142,45.983788 51.939777,45.986916 51.707409,45.990047 
	C50.591282,45.491848 49.475151,44.993649 48.198105,44.232483 
	C49.160671,44.180538 50.284161,44.391563 51.745560,44.686398 
z"/>
<path fill="#6B6969" opacity="1.000000" stroke="none" 
	d="
M46.904724,42.667370 
	C45.795212,42.514797 44.544949,42.048649 43.151291,41.265030 
	C44.259922,41.416302 45.511951,41.885048 46.904724,42.667370 
z"/>
<path fill="#6B6969" opacity="1.000000" stroke="none" 
	d="
M48.018391,43.730095 
	C47.735584,43.839779 47.421883,43.664562 47.055454,43.220383 
	C47.330982,43.116013 47.659241,43.280602 48.018391,43.730095 
z"/>
<path fill="#363535" opacity="1.000000" stroke="none" 
	d="
M57.360725,101.986145 
	C57.486549,101.490974 57.528255,101.560982 57.709496,101.925682 
	C57.963188,102.522736 58.035645,102.755081 58.108101,102.987427 
	C58.096313,112.342621 58.084530,121.697815 58.109909,131.520050 
	C57.774780,131.469254 57.078197,130.951355 57.078312,130.433624 
	C57.080402,121.116173 57.166668,111.798752 57.360725,101.986145 
z"/>
<path fill="#6B6969" opacity="1.000000" stroke="none" 
	d="
M47.024834,135.151123 
	C46.945850,134.935471 46.866871,134.719833 46.627052,134.199493 
	C46.885086,133.108154 47.303959,132.321533 47.722824,131.534897 
	C48.133823,132.103745 48.544827,132.672592 49.015923,133.569733 
	C48.976231,134.180176 48.876438,134.462311 48.810524,135.120178 
	C48.237885,135.380981 47.631359,135.266052 47.024834,135.151123 
z"/>
<path fill="#E6E0E7" opacity="1.000000" stroke="none" 
	d="
M64.188805,139.597809 
	C63.982922,139.732422 63.662548,139.607590 63.184410,139.278717 
	C63.375866,139.162582 63.725090,139.250473 64.188805,139.597809 
z"/>
<path fill="#0A080C" opacity="1.000000" stroke="none" 
	d="
M64.122131,132.155090 
	C63.425838,132.223450 62.934059,132.086990 62.442284,131.950531 
	C62.928787,131.459595 63.415291,130.968658 63.901802,130.477737 
	C64.043419,130.968582 64.185028,131.459412 64.122131,132.155090 
z"/>
<path fill="#0A080C" opacity="1.000000" stroke="none" 
	d="
M68.532326,129.553589 
	C68.018074,129.376892 67.744469,129.100952 67.470863,128.825012 
	C67.971970,128.657623 68.473076,128.490234 68.974182,128.322845 
	C68.907112,128.699997 68.840042,129.077164 68.532326,129.553589 
z"/>
<path fill="#0A080C" opacity="1.000000" stroke="none" 
	d="
M74.834435,125.808372 
	C75.004608,126.000145 75.000237,126.497238 74.998901,126.745720 
	C74.507004,126.591866 74.016449,126.189522 73.525902,125.787178 
	C73.905357,125.730316 74.284805,125.673462 74.834435,125.808372 
z"/>
<path fill="#0A080C" opacity="1.000000" stroke="none" 
	d="
M85.008316,119.765274 
	C84.859390,120.002762 84.682762,120.005859 84.240860,120.005760 
	C84.149239,119.605110 84.322876,119.207657 84.496513,118.810211 
	C84.657883,119.050438 84.819244,119.290657 85.008316,119.765274 
z"/>
<path fill="#0A080C" opacity="1.000000" stroke="none" 
	d="
M82.999847,119.999847 
	C82.999695,119.999695 82.598259,119.758102 82.598259,119.758102 
	C82.598259,119.758102 82.900406,119.773750 82.950050,119.886719 
	C82.999695,119.999695 83.000000,120.000000 82.999847,119.999847 
z"/>
<path fill="#0A080C" opacity="1.000000" stroke="none" 
	d="
M58.306061,102.807846 
	C58.035645,102.755081 57.963188,102.522736 57.733353,101.958710 
	C57.781460,101.545769 57.986950,101.464500 58.501198,101.501343 
	C58.707977,101.955727 58.605999,102.292000 58.306061,102.807846 
z"/>
<path fill="#0A080C" opacity="1.000000" stroke="none" 
	d="
M77.469292,124.518127 
	C77.450195,124.480934 77.488388,124.555321 77.469292,124.518127 
z"/>
<path fill="#0A080C" opacity="1.000000" stroke="none" 
	d="
M106.644905,125.306320 
	C105.911453,125.282433 105.035164,124.926186 104.087616,124.179863 
	C104.844925,124.184517 105.673492,124.579231 106.644905,125.306320 
z"/>
<path fill="#949393" opacity="1.000000" stroke="none" 
	d="
M46.710552,135.273224 
	C47.631359,135.266052 48.237885,135.380981 48.946270,135.231720 
	C51.646572,137.079697 54.245007,139.191879 56.929077,141.634460 
	C53.544415,140.751953 50.074116,139.539017 46.289482,138.172943 
	C46.115520,137.144974 46.255894,136.270157 46.710552,135.273224 
z"/>
<path fill="#949393" opacity="1.000000" stroke="none" 
	d="
M59.101410,142.004822 
	C59.734970,141.990265 60.421284,142.222336 61.027336,142.769424 
	C60.349434,142.806763 59.751797,142.529099 59.101410,142.004822 
z"/>
<path fill="#6B6969" opacity="1.000000" stroke="none" 
	d="
M51.824799,46.209717 
	C51.939777,45.986916 52.172142,45.983788 52.751648,45.948601 
	C53.633263,46.124348 54.167728,46.332157 54.877995,46.770817 
	C54.320702,47.005703 53.587608,47.009743 52.487778,46.954041 
	C52.121037,46.894302 51.942188,46.429382 51.824799,46.209717 
z"/>
<path fill="#A09E9E" opacity="1.000000" stroke="none" 
	d="
M88.188766,63.113567 
	C94.381462,65.923622 100.597946,69.085701 106.999634,72.536728 
	C100.860748,69.705650 94.536652,66.585625 88.188766,63.113567 
z"/>
<path fill="#E2DFDE" opacity="1.000000" stroke="none" 
	d="
M139.159668,93.126938 
	C140.113358,93.248283 141.082870,93.744591 142.152557,94.584328 
	C141.226974,94.452477 140.201218,93.977188 139.159668,93.126938 
z"/>
<path fill="#E2DFDE" opacity="1.000000" stroke="none" 
	d="
M138.171356,92.301376 
	C138.357956,92.191383 138.691620,92.287605 139.138367,92.638596 
	C138.940430,92.764778 138.629425,92.636185 138.171356,92.301376 
z"/>
</svg>